<?xml version="1.0" encoding="UTF-8" standalone="no"?>
<!-- Created with Inkscape (http://www.inkscape.org/) -->

<svg
   xmlns:dc="http://purl.org/dc/elements/1.1/"
   xmlns:cc="http://creativecommons.org/ns#"
   xmlns:rdf="http://www.w3.org/1999/02/22-rdf-syntax-ns#"
   xmlns:svg="http://www.w3.org/2000/svg"
   xmlns="http://www.w3.org/2000/svg"
   xmlns:sodipodi="http://sodipodi.sourceforge.net/DTD/sodipodi-0.dtd"
   xmlns:inkscape="http://www.inkscape.org/namespaces/inkscape"
   width="174.22318mm"
   height="104.43346mm"
   viewBox="0 0 617.32621 370.0398"
   id="svg2"
   version="1.1"
   inkscape:version="0.91 r13725"
   sodipodi:docname="fragmentation-of-ai.svg"
   inkscape:export-filename="C:\Users\Calvi\Desktop\fragmentation-of-ai.png"
   inkscape:export-xdpi="72"
   inkscape:export-ydpi="72">
  <defs
     id="defs4" />
  <sodipodi:namedview
     id="base"
     pagecolor="#01579b"
     bordercolor="#666666"
     borderopacity="1.0"
     inkscape:pageopacity="0"
     inkscape:pageshadow="2"
     inkscape:zoom="1.979899"
     inkscape:cx="321.79513"
     inkscape:cy="189.33491"
     inkscape:document-units="px"
     inkscape:current-layer="layer1"
     showgrid="false"
     inkscape:window-width="1920"
     inkscape:window-height="1017"
     inkscape:window-x="1358"
     inkscape:window-y="47"
     inkscape:window-maximized="1"
     fit-margin-top="1"
     fit-margin-left="1"
     fit-margin-right="1"
     fit-margin-bottom="1" />
  <metadata
     id="metadata7">
    <rdf:RDF>
      <cc:Work
         rdf:about="">
        <dc:format>image/svg+xml</dc:format>
        <dc:type
           rdf:resource="http://purl.org/dc/dcmitype/StillImage" />
        <dc:title></dc:title>
      </cc:Work>
    </rdf:RDF>
  </metadata>
  <g
     inkscape:label="Ebene 1"
     inkscape:groupmode="layer"
     id="layer1"
     transform="translate(-87.327085,-389.65089)">
    <path
       style="fill:none;fill-opacity:1;stroke:#ffffff;stroke-width:10;stroke-linecap:round;stroke-linejoin:round;stroke-miterlimit:4;stroke-dasharray:none;stroke-opacity:1"
       d="M 678.52866,543.85876 A 291.32913,145.66457 0 0 1 387.19952,689.52333 291.32913,145.66457 0 0 1 95.870392,543.85876 291.32913,145.66457 0 0 1 387.19952,398.1942 291.32913,145.66457 0 0 1 678.52866,543.85876 Z"
       id="path4136"
       inkscape:connector-curvature="0" />
    <g
       style="font-style:normal;font-variant:normal;font-weight:bold;font-stretch:condensed;font-size:43.75px;line-height:100%;font-family:'Open Sans Condensed';-inkscape-font-specification:'Open Sans Condensed, Bold Condensed';text-align:start;letter-spacing:-1.46000004px;word-spacing:0px;writing-mode:lr-tb;text-anchor:start;fill:#ffffff;fill-opacity:1;stroke:none;stroke-width:1px;stroke-linecap:butt;stroke-linejoin:miter;stroke-opacity:1"
       id="text4138">
      <path
         d="m 207.26038,495.5799 -1.79444,-7.8827 -8.13904,0 -1.79443,7.8827 -5.81055,0 7.73316,-31.35987 7.88269,0 7.75452,31.35987 -5.83191,0 z m -2.88392,-13.03101 -1.66625,-7.26318 q -0.14954,-0.66224 -0.6836,-3.31116 -0.51269,-2.67029 -0.61951,-3.56751 -0.27771,1.83716 -0.70495,4.05884 -0.42725,2.20032 -2.22168,10.08301 l 5.89599,0 z"
         style="font-style:normal;font-variant:normal;font-weight:bold;font-stretch:condensed;font-size:43.75px;line-height:100%;font-family:'Open Sans Condensed';-inkscape-font-specification:'Open Sans Condensed, Bold Condensed';text-align:start;letter-spacing:-1.46000004px;writing-mode:lr-tb;baseline-shift:baseline;text-anchor:start;fill:#ffffff;fill-opacity:1;stroke:none;stroke-opacity:1"
         id="path4305"
         inkscape:connector-curvature="0" />
      <path
         d="m 220.24129,483.42474 0,12.15516 -5.81054,0 0,-31.23169 7.60498,0 q 4.82788,0 7.11365,2.28576 2.30712,2.28577 2.30712,6.98548 0,5.91735 -3.99475,8.26721 l 6.00281,13.69324 -6.21643,0 -4.93469,-12.15516 -2.07215,0 z m 0,-4.99878 1.49537,0 q 2.05078,0 2.94799,-1.15356 0.89722,-1.17493 0.89722,-3.48206 0,-2.39257 -0.9613,-3.3966 -0.93994,-1.02539 -2.92664,-1.02539 l -1.45264,0 0,9.05761 z"
         style="font-style:normal;font-variant:normal;font-weight:bold;font-stretch:condensed;font-size:43.75px;line-height:100%;font-family:'Open Sans Condensed';-inkscape-font-specification:'Open Sans Condensed, Bold Condensed';text-align:start;letter-spacing:-1.46000004px;writing-mode:lr-tb;baseline-shift:baseline;text-anchor:start;fill:#ffffff;fill-opacity:1;stroke:none;stroke-opacity:1"
         id="path4307"
         inkscape:connector-curvature="0" />
      <path
         d="m 244.43742,495.5799 -5.78918,0 0,-26.1261 -5.98145,0 0,-5.10559 17.75208,0 0,5.10559 -5.98145,0 0,26.1261 z"
         style="font-style:normal;font-variant:normal;font-weight:bold;font-stretch:condensed;font-size:43.75px;line-height:100%;font-family:'Open Sans Condensed';-inkscape-font-specification:'Open Sans Condensed, Bold Condensed';text-align:start;letter-spacing:-1.46000004px;writing-mode:lr-tb;baseline-shift:baseline;text-anchor:start;fill:#ffffff;fill-opacity:1;stroke:none;stroke-opacity:1"
         id="path4309"
         inkscape:connector-curvature="0" />
      <path
         d="m 253.31678,495.5799 0,-31.23169 5.46875,0 0,31.23169 -5.46875,0 z"
         style="font-style:normal;font-variant:normal;font-weight:bold;font-stretch:condensed;font-size:43.75px;line-height:100%;font-family:'Open Sans Condensed';-inkscape-font-specification:'Open Sans Condensed, Bold Condensed';text-align:start;letter-spacing:-1.46000004px;writing-mode:lr-tb;baseline-shift:baseline;text-anchor:start;fill:#ffffff;fill-opacity:1;stroke:none;stroke-opacity:1"
         id="path4311"
         inkscape:connector-curvature="0" />
      <path
         d="m 269.73703,495.5799 -5.76782,0 0,-31.23169 13.99231,0 0,5.02014 -8.22449,0 0,8.67309 7.66907,0 0,5.02014 -7.66907,0 0,12.51832 z"
         style="font-style:normal;font-variant:normal;font-weight:bold;font-stretch:condensed;font-size:43.75px;line-height:100%;font-family:'Open Sans Condensed';-inkscape-font-specification:'Open Sans Condensed, Bold Condensed';text-align:start;letter-spacing:-1.46000004px;writing-mode:lr-tb;baseline-shift:baseline;text-anchor:start;fill:#ffffff;fill-opacity:1;stroke:none;stroke-opacity:1"
         id="path4313"
         inkscape:connector-curvature="0" />
      <path
         d="m 281.50029,495.5799 0,-31.23169 5.46875,0 0,31.23169 -5.46875,0 z"
         style="font-style:normal;font-variant:normal;font-weight:bold;font-stretch:condensed;font-size:43.75px;line-height:100%;font-family:'Open Sans Condensed';-inkscape-font-specification:'Open Sans Condensed, Bold Condensed';text-align:start;letter-spacing:-1.46000004px;writing-mode:lr-tb;baseline-shift:baseline;text-anchor:start;fill:#ffffff;fill-opacity:1;stroke:none;stroke-opacity:1"
         id="path4315"
         inkscape:connector-curvature="0" />
      <path
         d="m 302.51344,468.98383 q -2.49939,0 -3.95203,2.92663 -1.43128,2.92664 -1.43128,8.13904 0,10.85205 5.66102,10.85205 2.47802,0 5.19104,-1.58081 l 0,5.16968 q -2.28577,1.51672 -5.85328,1.51672 -5.27649,0 -8.11767,-4.18701 -2.81983,-4.20837 -2.81983,-11.81336 0,-7.60498 2.90528,-11.85607 2.92663,-4.2511 8.11767,-4.2511 1.70899,0 3.26844,0.46997 1.58081,0.46997 3.37524,1.6449 l -1.92261,4.72106 q -0.9613,-0.66223 -2.05078,-1.19628 -1.08948,-0.55542 -2.37121,-0.55542 z"
         style="font-style:normal;font-variant:normal;font-weight:bold;font-stretch:condensed;font-size:43.75px;line-height:100%;font-family:'Open Sans Condensed';-inkscape-font-specification:'Open Sans Condensed, Bold Condensed';text-align:start;letter-spacing:-1.46000004px;writing-mode:lr-tb;baseline-shift:baseline;text-anchor:start;fill:#ffffff;fill-opacity:1;stroke:none;stroke-opacity:1"
         id="path4317"
         inkscape:connector-curvature="0" />
      <path
         d="m 311.99094,495.5799 0,-31.23169 5.46875,0 0,31.23169 -5.46875,0 z"
         style="font-style:normal;font-variant:normal;font-weight:bold;font-stretch:condensed;font-size:43.75px;line-height:100%;font-family:'Open Sans Condensed';-inkscape-font-specification:'Open Sans Condensed, Bold Condensed';text-align:start;letter-spacing:-1.46000004px;writing-mode:lr-tb;baseline-shift:baseline;text-anchor:start;fill:#ffffff;fill-opacity:1;stroke:none;stroke-opacity:1"
         id="path4319"
         inkscape:connector-curvature="0" />
      <path
         d="m 337.42609,495.5799 -1.79444,-7.8827 -8.13904,0 -1.79443,7.8827 -5.81055,0 7.73316,-31.35987 7.88269,0 7.75452,31.35987 -5.83191,0 z m -2.88391,-13.03101 -1.66626,-7.26318 q -0.14954,-0.66224 -0.6836,-3.31116 -0.51269,-2.67029 -0.61951,-3.56751 -0.27771,1.83716 -0.70495,4.05884 -0.42725,2.20032 -2.22168,10.08301 l 5.896,0 z"
         style="font-style:normal;font-variant:normal;font-weight:bold;font-stretch:condensed;font-size:43.75px;line-height:100%;font-family:'Open Sans Condensed';-inkscape-font-specification:'Open Sans Condensed, Bold Condensed';text-align:start;letter-spacing:-1.46000004px;writing-mode:lr-tb;baseline-shift:baseline;text-anchor:start;fill:#ffffff;fill-opacity:1;stroke:none;stroke-opacity:1"
         id="path4321"
         inkscape:connector-curvature="0" />
      <path
         d="m 344.59645,495.5799 0,-31.23169 5.81055,0 0,26.14746 8.05359,0 0,5.08423 -13.86414,0 z"
         style="font-style:normal;font-variant:normal;font-weight:bold;font-stretch:condensed;font-size:43.75px;line-height:100%;font-family:'Open Sans Condensed';-inkscape-font-specification:'Open Sans Condensed, Bold Condensed';text-align:start;letter-spacing:-1.46000004px;writing-mode:lr-tb;baseline-shift:baseline;text-anchor:start;fill:#ffffff;fill-opacity:1;stroke:none;stroke-opacity:1"
         id="path4323"
         inkscape:connector-curvature="0" />
      <path
         d="m 371.1778,495.5799 0,-31.23169 5.46875,0 0,31.23169 -5.46875,0 z"
         style="font-style:normal;font-variant:normal;font-weight:bold;font-stretch:condensed;font-size:43.75px;line-height:100%;font-family:'Open Sans Condensed';-inkscape-font-specification:'Open Sans Condensed, Bold Condensed';text-align:start;letter-spacing:-1.46000004px;writing-mode:lr-tb;baseline-shift:baseline;text-anchor:start;fill:#ffffff;fill-opacity:1;stroke:none;stroke-opacity:1"
         id="path4325"
         inkscape:connector-curvature="0" />
      <path
         d="m 403.70522,495.5799 -7.09229,0 -9.65576,-22.62269 -0.27771,0 q 0.53406,2.58484 0.53406,5.5542 l 0,17.06849 -5.3833,0 0,-31.23169 7.13501,0 9.57031,22.38769 0.23498,0 q -0.40588,-2.24304 -0.40588,-5.34058 l 0,-17.04711 5.34058,0 0,31.23169 z"
         style="font-style:normal;font-variant:normal;font-weight:bold;font-stretch:condensed;font-size:43.75px;line-height:100%;font-family:'Open Sans Condensed';-inkscape-font-specification:'Open Sans Condensed, Bold Condensed';text-align:start;letter-spacing:-1.46000004px;writing-mode:lr-tb;baseline-shift:baseline;text-anchor:start;fill:#ffffff;fill-opacity:1;stroke:none;stroke-opacity:1"
         id="path4327"
         inkscape:connector-curvature="0" />
      <path
         d="m 417.3911,495.5799 -5.78919,0 0,-26.1261 -5.98144,0 0,-5.10559 17.75207,0 0,5.10559 -5.98144,0 0,26.1261 z"
         style="font-style:normal;font-variant:normal;font-weight:bold;font-stretch:condensed;font-size:43.75px;line-height:100%;font-family:'Open Sans Condensed';-inkscape-font-specification:'Open Sans Condensed, Bold Condensed';text-align:start;letter-spacing:-1.46000004px;writing-mode:lr-tb;baseline-shift:baseline;text-anchor:start;fill:#ffffff;fill-opacity:1;stroke:none;stroke-opacity:1"
         id="path4329"
         inkscape:connector-curvature="0" />
      <path
         d="m 439.30145,495.5799 -14.07776,0 0,-31.23169 14.07776,0 0,5.02014 -8.26721,0 0,7.43408 7.66907,0 0,5.0415 -7.66907,0 0,8.65174 8.26721,0 0,5.08423 z"
         style="font-style:normal;font-variant:normal;font-weight:bold;font-stretch:condensed;font-size:43.75px;line-height:100%;font-family:'Open Sans Condensed';-inkscape-font-specification:'Open Sans Condensed, Bold Condensed';text-align:start;letter-spacing:-1.46000004px;writing-mode:lr-tb;baseline-shift:baseline;text-anchor:start;fill:#ffffff;fill-opacity:1;stroke:none;stroke-opacity:1"
         id="path4331"
         inkscape:connector-curvature="0" />
      <path
         d="m 442.39163,495.5799 0,-31.23169 5.81055,0 0,26.14746 8.05359,0 0,5.08423 -13.86414,0 z"
         style="font-style:normal;font-variant:normal;font-weight:bold;font-stretch:condensed;font-size:43.75px;line-height:100%;font-family:'Open Sans Condensed';-inkscape-font-specification:'Open Sans Condensed, Bold Condensed';text-align:start;letter-spacing:-1.46000004px;writing-mode:lr-tb;baseline-shift:baseline;text-anchor:start;fill:#ffffff;fill-opacity:1;stroke:none;stroke-opacity:1"
         id="path4333"
         inkscape:connector-curvature="0" />
      <path
         d="m 458.53418,495.5799 0,-31.23169 5.81055,0 0,26.14746 8.05359,0 0,5.08423 -13.86414,0 z"
         style="font-style:normal;font-variant:normal;font-weight:bold;font-stretch:condensed;font-size:43.75px;line-height:100%;font-family:'Open Sans Condensed';-inkscape-font-specification:'Open Sans Condensed, Bold Condensed';text-align:start;letter-spacing:-1.46000004px;writing-mode:lr-tb;baseline-shift:baseline;text-anchor:start;fill:#ffffff;fill-opacity:1;stroke:none;stroke-opacity:1"
         id="path4335"
         inkscape:connector-curvature="0" />
      <path
         d="m 475.72345,495.5799 0,-31.23169 5.46875,0 0,31.23169 -5.46875,0 z"
         style="font-style:normal;font-variant:normal;font-weight:bold;font-stretch:condensed;font-size:43.75px;line-height:100%;font-family:'Open Sans Condensed';-inkscape-font-specification:'Open Sans Condensed, Bold Condensed';text-align:start;letter-spacing:-1.46000004px;writing-mode:lr-tb;baseline-shift:baseline;text-anchor:start;fill:#ffffff;fill-opacity:1;stroke:none;stroke-opacity:1"
         id="path4337"
         inkscape:connector-curvature="0" />
      <path
         d="m 495.81802,478.25507 9.54895,0 0,16.02172 q -4.05883,1.73035 -8.63037,1.73035 -5.44738,0 -8.39538,-4.14429 -2.92664,-4.14428 -2.92664,-11.94152 0,-7.51954 3.35388,-11.77063 3.37525,-4.2511 9.42078,-4.2511 3.7384,0 7.13501,1.9226 l -1.83716,4.74244 q -2.64892,-1.53809 -4.95605,-1.53809 -3.31116,0 -5.25513,2.96936 -1.92261,2.948 -1.92261,8.05359 0,5.25513 1.38855,8.05359 1.40991,2.79846 4.0802,2.79846 1.40991,0 2.86255,-0.36316 l 0,-7.15637 -3.86658,0 0,-5.12695 z"
         style="font-style:normal;font-variant:normal;font-weight:bold;font-stretch:condensed;font-size:43.75px;line-height:100%;font-family:'Open Sans Condensed';-inkscape-font-specification:'Open Sans Condensed, Bold Condensed';text-align:start;letter-spacing:-1.46000004px;writing-mode:lr-tb;baseline-shift:baseline;text-anchor:start;fill:#ffffff;fill-opacity:1;stroke:none;stroke-opacity:1"
         id="path4339"
         inkscape:connector-curvature="0" />
      <path
         d="m 522.74854,495.5799 -14.07776,0 0,-31.23169 14.07776,0 0,5.02014 -8.26722,0 0,7.43408 7.66907,0 0,5.0415 -7.66907,0 0,8.65174 8.26722,0 0,5.08423 z"
         style="font-style:normal;font-variant:normal;font-weight:bold;font-stretch:condensed;font-size:43.75px;line-height:100%;font-family:'Open Sans Condensed';-inkscape-font-specification:'Open Sans Condensed, Bold Condensed';text-align:start;letter-spacing:-1.46000004px;writing-mode:lr-tb;baseline-shift:baseline;text-anchor:start;fill:#ffffff;fill-opacity:1;stroke:none;stroke-opacity:1"
         id="path4341"
         inkscape:connector-curvature="0" />
      <path
         d="m 547.71368,495.5799 -7.09228,0 -9.65576,-22.62269 -0.27771,0 q 0.53405,2.58484 0.53405,5.5542 l 0,17.06849 -5.3833,0 0,-31.23169 7.13501,0 9.57032,22.38769 0.23498,0 q -0.40588,-2.24304 -0.40588,-5.34058 l 0,-17.04711 5.34057,0 0,31.23169 z"
         style="font-style:normal;font-variant:normal;font-weight:bold;font-stretch:condensed;font-size:43.75px;line-height:100%;font-family:'Open Sans Condensed';-inkscape-font-specification:'Open Sans Condensed, Bold Condensed';text-align:start;letter-spacing:-1.46000004px;writing-mode:lr-tb;baseline-shift:baseline;text-anchor:start;fill:#ffffff;fill-opacity:1;stroke:none;stroke-opacity:1"
         id="path4343"
         inkscape:connector-curvature="0" />
      <path
         d="m 562.16861,468.98383 q -2.49939,0 -3.95203,2.92663 -1.43127,2.92664 -1.43127,8.13904 0,10.85205 5.66101,10.85205 2.47803,0 5.19104,-1.58081 l 0,5.16968 q -2.28577,1.51672 -5.85327,1.51672 -5.27649,0 -8.11768,-4.18701 -2.81982,-4.20837 -2.81982,-11.81336 0,-7.60498 2.90527,-11.85607 2.92664,-4.2511 8.11768,-4.2511 1.70898,0 3.26843,0.46997 1.58081,0.46997 3.37524,1.6449 l -1.9226,4.72106 q -0.96131,-0.66223 -2.05078,-1.19628 -1.08948,-0.55542 -2.37122,-0.55542 z"
         style="font-style:normal;font-variant:normal;font-weight:bold;font-stretch:condensed;font-size:43.75px;line-height:100%;font-family:'Open Sans Condensed';-inkscape-font-specification:'Open Sans Condensed, Bold Condensed';text-align:start;letter-spacing:-1.46000004px;writing-mode:lr-tb;baseline-shift:baseline;text-anchor:start;fill:#ffffff;fill-opacity:1;stroke:none;stroke-opacity:1"
         id="path4345"
         inkscape:connector-curvature="0" />
      <path
         d="m 584.67712,495.5799 -14.07775,0 0,-31.23169 14.07775,0 0,5.02014 -8.26721,0 0,7.43408 7.66907,0 0,5.0415 -7.66907,0 0,8.65174 8.26721,0 0,5.08423 z"
         style="font-style:normal;font-variant:normal;font-weight:bold;font-stretch:condensed;font-size:43.75px;line-height:100%;font-family:'Open Sans Condensed';-inkscape-font-specification:'Open Sans Condensed, Bold Condensed';text-align:start;letter-spacing:-1.46000004px;writing-mode:lr-tb;baseline-shift:baseline;text-anchor:start;fill:#ffffff;fill-opacity:1;stroke:none;stroke-opacity:1"
         id="path4347"
         inkscape:connector-curvature="0" />
    </g>
    <path
       style="fill:none;fill-opacity:1;stroke:#001627;stroke-width:10.00000095;stroke-linecap:round;stroke-linejoin:round;stroke-miterlimit:4;stroke-dasharray:none;stroke-opacity:1"
       d="M 654.15073,569.04237 A 82.435681,158.68865 82.09622 0 1 508.22311,672.48701 82.435681,158.68865 82.09622 0 1 339.77736,612.60524 82.435681,158.68865 82.09622 0 1 485.70499,509.16059 82.435681,158.68865 82.09622 0 1 654.15073,569.04237 Z"
       id="ellipse4141"
       inkscape:connector-curvature="0" />
    <g
       transform="matrix(1.03088,-0.18948397,0.20176469,1.0053562,-25.873235,-22.822335)"
       style="font-style:normal;font-weight:normal;font-size:29.68597031px;line-height:100%;font-family:sans-serif;letter-spacing:0px;word-spacing:0px;fill:#001627;fill-opacity:1;stroke:none;stroke-width:1px;stroke-linecap:butt;stroke-linejoin:miter;stroke-opacity:1"
       id="text4143">
      <path
         d="m 266.22452,698.48889 -4.02964,-18.0464 -0.15944,0 q 0.2754,2.08729 0.2754,3.82671 l 0,14.21969 -3.65276,0 0,-21.19184 6.05895,0 3.62377,16.65487 0.11597,0 3.59478,-16.65487 6.14592,0 0,21.19184 -3.73973,0 0,-14.36465 q 0,-1.78289 0.20293,-3.65276 l -0.11596,0 -4.01514,18.01741 -4.30505,0 z"
         style="font-style:normal;font-variant:normal;font-weight:bold;font-stretch:condensed;line-height:100%;font-family:'Open Sans Condensed';-inkscape-font-specification:'Open Sans Condensed, Bold Condensed';text-align:start;writing-mode:lr-tb;baseline-shift:baseline;text-anchor:start;fill:#001627;fill-opacity:1;stroke:none;stroke-opacity:1"
         id="path4273"
         inkscape:connector-curvature="0" />
      <path
         d="m 291.99681,698.48889 -1.21759,-5.34869 -5.52263,0 -1.21759,5.34869 -3.94267,0 5.24723,-21.27881 5.34869,0 5.26172,21.27881 -3.95716,0 z m -1.95684,-8.84201 -1.13062,-4.92834 q -0.10146,-0.44934 -0.46384,-2.24674 -0.34788,-1.81188 -0.42036,-2.42068 -0.18843,1.24658 -0.47833,2.75407 -0.28991,1.493 -1.5075,6.84169 l 4.00065,0 z"
         style="font-style:normal;font-variant:normal;font-weight:bold;font-stretch:condensed;line-height:100%;font-family:'Open Sans Condensed';-inkscape-font-specification:'Open Sans Condensed, Bold Condensed';text-align:start;writing-mode:lr-tb;baseline-shift:baseline;text-anchor:start;fill:#001627;fill-opacity:1;stroke:none;stroke-opacity:1"
         id="path4275"
         inkscape:connector-curvature="0" />
      <path
         d="m 304.88296,680.44249 q -1.69593,0 -2.6816,1.98583 -0.97117,1.98583 -0.97117,5.52263 0,7.36351 3.8412,7.36351 1.68143,0 3.52231,-1.07263 l 0,3.50781 q -1.55097,1.02915 -3.97166,1.02915 -3.58029,0 -5.50813,-2.84104 -1.91336,-2.85553 -1.91336,-8.01579 0,-5.16025 1.97134,-8.04478 1.98583,-2.88453 5.50814,-2.88453 1.1596,0 2.21775,0.3189 1.07263,0.31889 2.29022,1.11612 l -1.30456,3.20342 q -0.65228,-0.44935 -1.39153,-0.81173 -0.73925,-0.37687 -1.60895,-0.37687 z"
         style="font-style:normal;font-variant:normal;font-weight:bold;font-stretch:condensed;line-height:100%;font-family:'Open Sans Condensed';-inkscape-font-specification:'Open Sans Condensed, Bold Condensed';text-align:start;writing-mode:lr-tb;baseline-shift:baseline;text-anchor:start;fill:#001627;fill-opacity:1;stroke:none;stroke-opacity:1"
         id="path4277"
         inkscape:connector-curvature="0" />
      <path
         d="m 324.68327,698.48889 -3.94267,0 0,-9.29136 -5.20374,0 0,9.29136 -3.94267,0 0,-21.19184 3.94267,0 0,8.42166 5.20374,0 0,-8.42166 3.94267,0 0,21.19184 z"
         style="font-style:normal;font-variant:normal;font-weight:bold;font-stretch:condensed;line-height:100%;font-family:'Open Sans Condensed';-inkscape-font-specification:'Open Sans Condensed, Bold Condensed';text-align:start;writing-mode:lr-tb;baseline-shift:baseline;text-anchor:start;fill:#001627;fill-opacity:1;stroke:none;stroke-opacity:1"
         id="path4279"
         inkscape:connector-curvature="0" />
      <path
         d="m 329.11877,698.48889 0,-21.19184 3.71075,0 0,21.19184 -3.71075,0 z"
         style="font-style:normal;font-variant:normal;font-weight:bold;font-stretch:condensed;line-height:100%;font-family:'Open Sans Condensed';-inkscape-font-specification:'Open Sans Condensed, Bold Condensed';text-align:start;writing-mode:lr-tb;baseline-shift:baseline;text-anchor:start;fill:#001627;fill-opacity:1;stroke:none;stroke-opacity:1"
         id="path4281"
         inkscape:connector-curvature="0" />
      <path
         d="m 352.18048,698.48889 -4.81237,0 -6.55179,-15.35031 -0.18843,0 q 0.36237,1.75391 0.36237,3.76872 l 0,11.58159 -3.65276,0 0,-21.19184 4.84136,0 6.49381,15.19087 0.15944,0 q -0.2754,-1.52199 -0.2754,-3.62378 l 0,-11.56709 3.62377,0 0,21.19184 z"
         style="font-style:normal;font-variant:normal;font-weight:bold;font-stretch:condensed;line-height:100%;font-family:'Open Sans Condensed';-inkscape-font-specification:'Open Sans Condensed, Bold Condensed';text-align:start;writing-mode:lr-tb;baseline-shift:baseline;text-anchor:start;fill:#001627;fill-opacity:1;stroke:none;stroke-opacity:1"
         id="path4283"
         inkscape:connector-curvature="0" />
      <path
         d="m 365.50148,698.48889 -9.55227,0 0,-21.19184 9.55227,0 0,3.40635 -5.60961,0 0,5.0443 5.20375,0 0,3.42084 -5.20375,0 0,5.87052 5.60961,0 0,3.44983 z"
         style="font-style:normal;font-variant:normal;font-weight:bold;font-stretch:condensed;line-height:100%;font-family:'Open Sans Condensed';-inkscape-font-specification:'Open Sans Condensed, Bold Condensed';text-align:start;writing-mode:lr-tb;baseline-shift:baseline;text-anchor:start;fill:#001627;fill-opacity:1;stroke:none;stroke-opacity:1"
         id="path4285"
         inkscape:connector-curvature="0" />
      <path
         d="m 375.95245,698.48889 0,-21.19184 3.94267,0 0,17.74201 5.46465,0 0,3.44983 -9.40732,0 z"
         style="font-style:normal;font-variant:normal;font-weight:bold;font-stretch:condensed;line-height:100%;font-family:'Open Sans Condensed';-inkscape-font-specification:'Open Sans Condensed, Bold Condensed';text-align:start;writing-mode:lr-tb;baseline-shift:baseline;text-anchor:start;fill:#001627;fill-opacity:1;stroke:none;stroke-opacity:1"
         id="path4287"
         inkscape:connector-curvature="0" />
      <path
         d="m 397.44869,698.48889 -9.55227,0 0,-21.19184 9.55227,0 0,3.40635 -5.6096,0 0,5.0443 5.20374,0 0,3.42084 -5.20374,0 0,5.87052 5.6096,0 0,3.44983 z"
         style="font-style:normal;font-variant:normal;font-weight:bold;font-stretch:condensed;line-height:100%;font-family:'Open Sans Condensed';-inkscape-font-specification:'Open Sans Condensed, Bold Condensed';text-align:start;writing-mode:lr-tb;baseline-shift:baseline;text-anchor:start;fill:#001627;fill-opacity:1;stroke:none;stroke-opacity:1"
         id="path4289"
         inkscape:connector-curvature="0" />
      <path
         d="m 410.56675,698.48889 -1.21758,-5.34869 -5.52264,0 -1.21759,5.34869 -3.94266,0 5.24722,-21.27881 5.3487,0 5.26172,21.27881 -3.95717,0 z m -1.95683,-8.84201 -1.13062,-4.92834 q -0.10147,-0.44934 -0.46385,-2.24674 -0.34788,-1.81188 -0.42035,-2.42068 -0.18844,1.24658 -0.47834,2.75407 -0.2899,1.493 -1.50749,6.84169 l 4.00065,0 z"
         style="font-style:normal;font-variant:normal;font-weight:bold;font-stretch:condensed;line-height:100%;font-family:'Open Sans Condensed';-inkscape-font-specification:'Open Sans Condensed, Bold Condensed';text-align:start;writing-mode:lr-tb;baseline-shift:baseline;text-anchor:start;fill:#001627;fill-opacity:1;stroke:none;stroke-opacity:1"
         id="path4291"
         inkscape:connector-curvature="0" />
      <path
         d="m 420.36544,690.24118 0,8.24771 -3.94267,0 0,-21.19184 5.16026,0 q 3.27589,0 4.82687,1.55098 1.56547,1.55097 1.56547,4.7399 0,4.01514 -2.71059,5.6096 l 4.07313,9.29136 -4.21808,0 -3.34837,-8.24771 -1.40602,0 z m 0,-3.39186 1.01466,0 q 1.39153,0 2.00032,-0.78273 0.60879,-0.79723 0.60879,-2.3627 0,-1.62345 -0.65228,-2.30472 -0.63778,-0.69577 -1.98582,-0.69577 l -0.98567,0 0,6.14592 z"
         style="font-style:normal;font-variant:normal;font-weight:bold;font-stretch:condensed;line-height:100%;font-family:'Open Sans Condensed';-inkscape-font-specification:'Open Sans Condensed, Bold Condensed';text-align:start;writing-mode:lr-tb;baseline-shift:baseline;text-anchor:start;fill:#001627;fill-opacity:1;stroke:none;stroke-opacity:1"
         id="path4293"
         inkscape:connector-curvature="0" />
      <path
         d="m 446.10874,698.48889 -4.81237,0 -6.55179,-15.35031 -0.18843,0 q 0.36237,1.75391 0.36237,3.76872 l 0,11.58159 -3.65276,0 0,-21.19184 4.84136,0 6.49381,15.19087 0.15944,0 q -0.2754,-1.52199 -0.2754,-3.62378 l 0,-11.56709 3.62377,0 0,21.19184 z"
         style="font-style:normal;font-variant:normal;font-weight:bold;font-stretch:condensed;line-height:100%;font-family:'Open Sans Condensed';-inkscape-font-specification:'Open Sans Condensed, Bold Condensed';text-align:start;writing-mode:lr-tb;baseline-shift:baseline;text-anchor:start;fill:#001627;fill-opacity:1;stroke:none;stroke-opacity:1"
         id="path4295"
         inkscape:connector-curvature="0" />
      <path
         d="m 450.58773,698.48889 0,-21.19184 3.71074,0 0,21.19184 -3.71074,0 z"
         style="font-style:normal;font-variant:normal;font-weight:bold;font-stretch:condensed;line-height:100%;font-family:'Open Sans Condensed';-inkscape-font-specification:'Open Sans Condensed, Bold Condensed';text-align:start;writing-mode:lr-tb;baseline-shift:baseline;text-anchor:start;fill:#001627;fill-opacity:1;stroke:none;stroke-opacity:1"
         id="path4297"
         inkscape:connector-curvature="0" />
      <path
         d="m 473.64944,698.48889 -4.81238,0 -6.55178,-15.35031 -0.18844,0 q 0.36238,1.75391 0.36238,3.76872 l 0,11.58159 -3.65277,0 0,-21.19184 4.84137,0 6.4938,15.19087 0.15945,0 q -0.27541,-1.52199 -0.27541,-3.62378 l 0,-11.56709 3.62378,0 0,21.19184 z"
         style="font-style:normal;font-variant:normal;font-weight:bold;font-stretch:condensed;line-height:100%;font-family:'Open Sans Condensed';-inkscape-font-specification:'Open Sans Condensed, Bold Condensed';text-align:start;writing-mode:lr-tb;baseline-shift:baseline;text-anchor:start;fill:#001627;fill-opacity:1;stroke:none;stroke-opacity:1"
         id="path4299"
         inkscape:connector-curvature="0" />
      <path
         d="m 483.825,686.73336 6.47931,0 0,10.87133 q -2.75407,1.1741 -5.85602,1.1741 -3.69625,0 -5.69658,-2.81205 -1.98583,-2.81205 -1.98583,-8.10276 0,-5.10227 2.27573,-7.9868 2.29023,-2.88453 6.39234,-2.88453 2.53665,0 4.84137,1.30456 l -1.24658,3.21792 q -1.79739,-1.04365 -3.36286,-1.04365 -2.24675,0 -3.5658,2.01482 -1.30456,2.00032 -1.30456,5.46465 0,3.5658 0.94218,5.46466 0.95668,1.89885 2.76857,1.89885 0.95667,0 1.94234,-0.24641 l 0,-4.85586 -2.62361,0 0,-3.47883 z"
         style="font-style:normal;font-variant:normal;font-weight:bold;font-stretch:condensed;line-height:100%;font-family:'Open Sans Condensed';-inkscape-font-specification:'Open Sans Condensed, Bold Condensed';text-align:start;writing-mode:lr-tb;baseline-shift:baseline;text-anchor:start;fill:#001627;fill-opacity:1;stroke:none;stroke-opacity:1"
         id="path4301"
         inkscape:connector-curvature="0" />
    </g>
    <path
       style="fill:none;fill-opacity:1;stroke:#2c3e50;stroke-width:7.5;stroke-linecap:round;stroke-linejoin:round;stroke-miterlimit:4;stroke-dasharray:none;stroke-opacity:1"
       d="m 346.42149,556.79816 a 48.833796,103.40681 20.045249 0 1 9.71094,114.58872 48.833796,103.40681 20.045249 0 1 -81.4087,79.39246 48.833796,103.40681 20.045249 0 1 -9.71094,-114.58873 48.833796,103.40681 20.045249 0 1 81.4087,-79.39245 z"
       id="ellipse4153"
       inkscape:connector-curvature="0" />
    <path
       transform="matrix(0.85617486,-0.51668617,0.53055542,0.84765025,0,0)"
       style="fill:none;fill-opacity:1;stroke:#2c3e50;stroke-width:7.50049686;stroke-linecap:round;stroke-linejoin:round;stroke-miterlimit:4;stroke-dasharray:none;stroke-opacity:1"
       d="m 158.2783,718.19873 a 49.563061,24.243717 0 0 1 -49.56306,24.24372 49.563061,24.243717 0 0 1 -49.56306,-24.24372 49.563061,24.243717 0 0 1 49.56306,-24.24372 49.563061,24.243717 0 0 1 49.56306,24.24372 z"
       id="ellipse4155"
       inkscape:connector-curvature="0" />
    <path
       transform="matrix(0.98837186,-0.15205611,0.32533154,0.94560002,0,0)"
       style="fill:none;fill-opacity:1;stroke:#2c3e50;stroke-width:7.56044912;stroke-linecap:round;stroke-linejoin:round;stroke-miterlimit:4;stroke-dasharray:none;stroke-opacity:1"
       d="m 206.34782,616.83691 a 87.095177,27.903641 0 0 1 -87.09517,27.90364 87.095177,27.903641 0 0 1 -87.095179,-27.90364 87.095177,27.903641 0 0 1 87.095179,-27.90364 87.095177,27.903641 0 0 1 87.09517,27.90364 z"
       id="ellipse4157"
       inkscape:connector-curvature="0" />
    <path
       transform="matrix(0.98837186,-0.15205611,0.32533154,0.94560002,0,0)"
       style="fill:none;fill-opacity:1;stroke:#93a7ac;stroke-width:7.56044912;stroke-linecap:round;stroke-linejoin:round;stroke-miterlimit:4;stroke-dasharray:none;stroke-opacity:1"
       d="m 395.1183,623.78827 a 49.94627,16.001837 0 0 1 -49.94627,16.00184 49.94627,16.001837 0 0 1 -49.94627,-16.00184 49.94627,16.001837 0 0 1 49.94627,-16.00184 49.94627,16.001837 0 0 1 49.94627,16.00184 z"
       id="ellipse4159"
       inkscape:connector-curvature="0" />
    <path
       transform="matrix(-0.96111804,-0.27613786,0.26045518,-0.96548594,0,0)"
       style="fill:none;fill-opacity:1;stroke:#93a7ac;stroke-width:7.50049686;stroke-linecap:round;stroke-linejoin:round;stroke-miterlimit:4;stroke-dasharray:none;stroke-opacity:1"
       d="m -700.90681,-464.88791 a 29.965628,14.657654 0 0 1 -29.96563,14.65765 29.965628,14.657654 0 0 1 -29.96562,-14.65765 29.965628,14.657654 0 0 1 29.96562,-14.65765 29.965628,14.657654 0 0 1 29.96563,14.65765 z"
       id="ellipse4161"
       inkscape:connector-curvature="0" />
    <path
       transform="matrix(0.98837186,-0.15205611,0.32533154,0.94560002,0,0)"
       style="fill:none;fill-opacity:1;stroke:#001627;stroke-width:7.56044912;stroke-linecap:round;stroke-linejoin:round;stroke-miterlimit:4;stroke-dasharray:none;stroke-opacity:1"
       d="M 129.87327,641.86975 A 62.550365,20.039949 0 0 1 67.322906,661.9097 62.550365,20.039949 0 0 1 4.772541,641.86975 62.550365,20.039949 0 0 1 67.322906,621.8298 62.550365,20.039949 0 0 1 129.87327,641.86975 Z"
       id="ellipse4163"
       inkscape:connector-curvature="0" />
    <path
       transform="matrix(0.99589577,0.09050757,0.08350694,0.9965072,0,0)"
       style="fill:none;fill-opacity:1;stroke:#93a7ac;stroke-width:7.55743074;stroke-linecap:round;stroke-linejoin:round;stroke-miterlimit:4;stroke-dasharray:none;stroke-opacity:1"
       d="m 184.66726,529.38837 a 48.160927,20.183716 0 0 1 -48.16093,20.18371 48.160927,20.183716 0 0 1 -48.160924,-20.18371 48.160927,20.183716 0 0 1 48.160924,-20.18372 48.160927,20.183716 0 0 1 48.16093,20.18372 z"
       id="ellipse4165"
       inkscape:connector-curvature="0" />
    <path
       style="fill:none;fill-opacity:1;stroke:#2c3e50;stroke-width:7.5;stroke-linecap:round;stroke-linejoin:round;stroke-miterlimit:4;stroke-dasharray:none;stroke-opacity:1"
       d="m 697.33277,552.83939 a 48.313688,19.815269 7.2470746 0 1 -46.27777,15.75428 48.313688,19.815269 7.2470746 0 1 -49.64875,-24.47214 48.313688,19.815269 7.2470746 0 1 46.27778,-15.75429 48.313688,19.815269 7.2470746 0 1 49.64874,24.47215 z"
       id="ellipse4167"
       inkscape:connector-curvature="0" />
    <path
       transform="matrix(-0.96111804,-0.27613786,0.26045518,-0.96548594,0,0)"
       style="fill:none;fill-opacity:1;stroke:#ffffff;stroke-width:7.50049686;stroke-linecap:round;stroke-linejoin:round;stroke-miterlimit:4;stroke-dasharray:none;stroke-opacity:1"
       d="m -579.29725,-497.05371 a 29.965628,14.657654 0 0 1 -29.96563,14.65765 29.965628,14.657654 0 0 1 -29.96563,-14.65765 29.965628,14.657654 0 0 1 29.96563,-14.65765 29.965628,14.657654 0 0 1 29.96563,14.65765 z"
       id="ellipse4169"
       inkscape:connector-curvature="0" />
    <path
       transform="matrix(0.50256452,-0.86453971,0.91548034,0.4023627,0,0)"
       style="fill:none;fill-opacity:1;stroke:#ffffff;stroke-width:7.52380419;stroke-linecap:round;stroke-linejoin:round;stroke-miterlimit:4;stroke-dasharray:none;stroke-opacity:1"
       d="m -300.6622,689.92981 a 16.896938,9.6790247 0 0 1 -16.89694,9.67902 16.896938,9.6790247 0 0 1 -16.89694,-9.67902 16.896938,9.6790247 0 0 1 16.89694,-9.67903 16.896938,9.6790247 0 0 1 16.89694,9.67903 z"
       id="ellipse4171"
       inkscape:connector-curvature="0" />
  </g>
</svg>
